<svg width="48" height="48" viewBox="0 0 48 48" fill="none" xmlns="http://www.w3.org/2000/svg">
<circle cx="24" cy="24" r="24" fill="#F9F9FB"/>
<path d="M34.6267 27.8133L33.8667 22.2666C33.2401 17.6399 29.6667 14.0533 25.3201 13.4399V12.0133C25.3201 11.28 24.7201 10.68 23.9868 10.68C23.2534 10.68 22.6534 11.28 22.6534 12.0133V13.4399C18.3068 14.0666 14.7601 17.6399 14.1201 22.2666L13.3601 27.8133C13.1601 29.2533 13.5867 30.6933 14.5334 31.76C15.4267 32.7733 16.6934 33.3599 18.0267 33.3599H19.4268C19.7201 35.5866 21.6134 37.32 23.9201 37.32C26.2267 37.32 28.1201 35.5866 28.4134 33.3599H29.9201C31.2534 33.3599 32.5201 32.7733 33.4134 31.76C34.3601 30.68 34.7867 29.24 34.5867 27.8133H34.6267ZM23.9468 34.6667C23.1068 34.6667 22.4134 34.12 22.1601 33.3733H25.7334C25.4801 34.12 24.7868 34.6667 23.9468 34.6667ZM31.4401 30.0133C31.0534 30.4533 30.5201 30.7066 29.9468 30.7066H18.0401C17.4667 30.7066 16.9467 30.4667 16.5467 30.0133C16.1201 29.52 15.9201 28.84 16.0134 28.1733L16.7734 22.6266C17.2801 18.8533 20.3867 16 24.0001 16C27.6134 16 30.7067 18.8533 31.2267 22.6266L31.9867 28.1733C32.0801 28.84 31.8801 29.52 31.4534 30.0133H31.4401Z" fill="#009CB4"/>
<circle cx="39" cy="9" r="9" fill="#009CB4"/>
<path d="M42.1098 10.2375V11.3875H41.1973V13H39.9723V11.3875H36.0098V10.2375L38.9598 4H40.2223L37.2723 10.2375H39.9723V7.7625H41.1973V10.2375H42.1098Z" fill="white"/>
</svg>
